<svg xmlns="http://www.w3.org/2000/svg" width="63.354" height="63.354" viewBox="0 0 63.354 63.354">
  <g id="Union_16" data-name="Union 16" transform="translate(173.512 -210.417) rotate(-45)" fill="#e88484">
    <path d="M -264.0122985839844 92.79220581054688 L -293.3778991699219 92.79220581054688 L -293.3778991699219 63.42660522460938 C -293.3778991699219 59.57141494750977 -291.8765563964844 55.94713592529297 -289.1504821777344 53.22138595581055 C -286.4245300292969 50.49576568603516 -282.8002014160156 48.99470520019531 -278.9450988769531 48.99470520019531 C -275.0896911621094 48.99470520019531 -271.4652404785156 50.49576568603516 -268.7393798828125 53.22137451171875 C -266.0135192871094 55.94702529907227 -264.5122985839844 59.57131576538086 -264.5122985839844 63.42660522460938 L -264.5122985839844 63.92660522460938 L -264.0122985839844 63.92660522460938 C -260.1572875976562 63.92660522460938 -256.532958984375 65.42782592773438 -253.8069458007812 68.15371704101562 C -251.0808410644531 70.87970733642578 -249.5795135498047 74.50415802001953 -249.5795135498047 78.35940551757812 C -249.5795135498047 82.21465301513672 -251.0808410644531 85.83910369873047 -253.8069458007812 88.56509399414062 C -256.532958984375 91.29098510742188 -260.1572875976562 92.79220581054688 -264.0122985839844 92.79220581054688 Z" stroke="none"/>
    <path d="M -264.0122985839844 92.29220581054688 C -260.2908325195312 92.29220581054688 -256.7920532226562 90.84299468994141 -254.1604919433594 88.21153259277344 C -251.5288238525391 85.57998657226562 -250.0795135498047 82.08109283447266 -250.0795135498047 78.35940551757812 C -250.0795135498047 74.63771820068359 -251.5288238525391 71.13882446289062 -254.1604919433594 68.50727844238281 C -256.7920532226562 65.87581634521484 -260.2908325195312 64.42660522460938 -264.0122985839844 64.42660522460938 L -265.0122985839844 64.42660522460938 L -265.0122985839844 63.42660522460938 C -265.0122985839844 59.70487594604492 -266.4614868164062 56.20615386962891 -269.0929260253906 53.57494735717773 C -271.7243347167969 50.94376373291016 -275.2232360839844 49.49470520019531 -278.9450988769531 49.49470520019531 C -282.6666259765625 49.49470520019531 -286.1654357910156 50.94376373291016 -288.7969360351562 53.57495498657227 C -291.4285888671875 56.20626449584961 -292.8778991699219 59.70498657226562 -292.8778991699219 63.42660522460938 L -292.8778991699219 92.29220581054688 L -264.0122985839844 92.29220581054688 M -264.0122985839844 93.29220581054688 L -293.8778991699219 93.29220581054688 L -293.8778991699219 63.42660522460938 C -293.8778991699219 55.17900466918945 -287.1918029785156 48.49470520019531 -278.9450988769531 48.49470520019531 C -270.697509765625 48.49470520019531 -264.0122985839844 55.17900466918945 -264.0122985839844 63.42660522460938 C -255.7656097412109 63.42660522460938 -249.0795135498047 70.11180877685547 -249.0795135498047 78.35940551757812 C -249.0795135498047 86.60700225830078 -255.7656097412109 93.29220581054688 -264.0122985839844 93.29220581054688 Z" stroke="none" fill="#707070"/>
  </g>
</svg>
