<svg id="Component_9_16" data-name="Component 9 – 16" xmlns="http://www.w3.org/2000/svg" width="79" height="79" viewBox="0 0 79 79">
  <g id="Union_8" data-name="Union 8" transform="translate(0 39.499) rotate(-45)" fill="#fff">
    <path d="M 37.24020004272461 55.36210250854492 L 0.5000011324882507 55.36210250854492 L 0.5000011324882507 18.62100219726562 C 0.5000011324882507 16.17463111877441 0.9790311455726624 13.80169105529785 1.923791170120239 11.56808185577393 C 2.836421012878418 9.410421371459961 4.143031120300293 7.472521305084229 5.807331085205078 5.808231353759766 C 7.471621036529541 4.14393138885498 9.409521102905273 2.837321281433105 11.56718158721924 1.924691438674927 C 13.80079078674316 0.9799314141273499 16.17373085021973 0.5009014010429382 18.62010192871094 0.5009014010429382 C 21.06668090820312 0.5009014010429382 23.43975067138672 0.9799314141273499 25.67340087890625 1.924691438674927 C 27.83108139038086 2.837311506271362 29.76896095275879 4.143921375274658 31.43320083618164 5.808221340179443 C 33.09741973876953 7.472491264343262 34.40396118164062 9.410391807556152 35.31653213500977 11.56807136535645 C 36.26121139526367 13.80165100097656 36.74020004272461 16.17460060119629 36.74020004272461 18.62100219726562 L 36.74020004272461 19.12100219726562 L 37.24020004272461 19.12100219726562 C 39.68678283691406 19.12100219726562 42.05990982055664 19.60003089904785 44.29365158081055 20.54479217529297 C 46.45143127441406 21.45742225646973 48.38941192626953 22.76403045654297 50.05377197265625 24.42833137512207 C 51.71811294555664 26.09262084960938 53.02474975585938 28.0305118560791 53.93740081787109 30.18818092346191 C 54.88216018676758 32.42177963256836 55.36120223999023 34.79471969604492 55.36120223999023 37.2411003112793 C 55.36120223999023 39.68770217895508 54.88216018676758 42.06082153320312 53.9373893737793 44.29455184936523 C 53.02474975585938 46.45233154296875 51.71810150146484 48.39031219482422 50.05376052856445 50.05466079711914 C 48.38941192626953 51.71900177001953 46.45143127441406 53.02565002441406 44.29365158081055 53.93828964233398 C 42.05992126464844 54.88306045532227 39.68680191040039 55.36210250854492 37.24020004272461 55.36210250854492 Z" stroke="none"/>
    <path d="M 37.24020004272461 54.86210250854492 C 41.94704055786133 54.86210250854492 46.37208938598633 53.02922058105469 49.70021057128906 49.70111083984375 C 53.0283203125 46.37298965454102 54.86120223999023 41.94794082641602 54.86120223999023 37.2411003112793 C 54.86120223999023 32.53466033935547 53.0283317565918 28.10989189147949 49.70022201538086 24.78189086914062 C 46.37205123901367 21.45384216308594 41.94700241088867 19.62100219726562 37.24020004272461 19.62100219726562 L 36.24020004272461 19.62100219726562 L 36.24020004272461 18.62100219726562 C 36.24020004272461 13.91449165344238 34.4074821472168 9.489721298217773 31.07964134216309 6.161771297454834 C 27.7517204284668 2.833731412887573 23.32683181762695 1.000901341438293 18.62010192871094 1.000901341438293 C 13.91370105743408 1.000901341438293 9.488930702209473 2.833741426467896 6.160881042480469 6.161781311035156 C 2.832841157913208 9.48983097076416 1.000001072883606 13.91460132598877 1.000001072883606 18.62100219726562 L 1.000001072883606 54.86210250854492 L 37.24020004272461 54.86210250854492 M 37.24020004272461 55.86210250854492 L 1.119995090448356e-06 55.86210250854492 L 1.119995090448356e-06 18.62100219726562 C 1.119995090448356e-06 8.337601661682129 8.336701393127441 0.000901388528291136 18.62010192871094 0.000901388528291136 C 28.9044017791748 0.000901388528291136 37.24020004272461 8.337601661682129 37.24020004272461 18.62100219726562 C 47.52450180053711 18.62100219726562 55.86120223999023 26.95770072937012 55.86120223999023 37.2411003112793 C 55.86120223999023 47.5254020690918 47.52450180053711 55.86210250854492 37.24020004272461 55.86210250854492 Z" stroke="none" fill="#707070"/>
  </g>
</svg>
